<svg width="1400" height="420" viewBox="0 0 1400 420" xmlns="http://www.w3.org/2000/svg" role="img" aria-label="Nyx Monitor banner">
  <defs>
    <linearGradient id="bg" x1="0" y1="0" x2="1400" y2="420" gradientUnits="userSpaceOnUse">
      <stop offset="0" stop-color="#15171b"/>
      <stop offset="1" stop-color="#1f2329"/>
    </linearGradient>
    <linearGradient id="markGlow" x1="0" y1="0" x2="1" y2="1">
      <stop offset="0" stop-color="#7ec8ff"/>
      <stop offset="1" stop-color="#4b8ff8"/>
    </linearGradient>
    <linearGradient id="panel" x1="0" y1="0" x2="0" y2="1">
      <stop offset="0" stop-color="#242a31"/>
      <stop offset="1" stop-color="#1d2228"/>
    </linearGradient>
    <filter id="softShadow" x="-20%" y="-20%" width="140%" height="140%">
      <feDropShadow dx="0" dy="10" stdDeviation="10" flood-color="#000000" flood-opacity="0.35"/>
    </filter>
    <pattern id="grid" width="32" height="32" patternUnits="userSpaceOnUse">
      <path d="M 32 0 L 0 0 0 32" fill="none" stroke="#2b3138" stroke-width="1"/>
    </pattern>
  </defs>

  <rect width="1400" height="420" fill="url(#bg)"/>
  <rect width="1400" height="420" fill="url(#grid)" opacity="0.35"/>
  <circle cx="1280" cy="60" r="180" fill="#20262d" opacity="0.45"/>
  <circle cx="1130" cy="300" r="140" fill="#1b2026" opacity="0.45"/>

  <g transform="translate(64 62)" filter="url(#softShadow)">
    <rect x="0" y="0" width="136" height="136" rx="14" fill="#1a1f25" stroke="#323a43" stroke-width="2"/>
    <path d="M76 22C58 22 44 36 44 54C44 72 58 86 76 86C83 86 89 84 95 81C88 93 76 102 62 102C39 102 20 83 20 60C20 37 39 18 62 18H76Z" fill="#2a3139"/>
    <path d="M46 102V34H61L87 72V34H102V102H87L61 64V102H46Z" fill="url(#markGlow)"/>
  </g>

  <g transform="translate(230 86)">
    <text x="0" y="58" fill="#f2f4f6" font-size="72" font-weight="800" font-family="'Segoe UI', Tahoma, sans-serif" letter-spacing="1.5">NYX MONITOR</text>
    <text x="0" y="102" fill="#a5afb9" font-size="25" font-weight="500" font-family="'Segoe UI', Tahoma, sans-serif">
      Real-time process intelligence and threat visibility for Windows
    </text>

    <g transform="translate(0 132)">
      <rect x="0" y="0" width="150" height="36" rx="8" fill="#21303d" stroke="#355470"/>
      <text x="18" y="24" fill="#9fd4ff" font-size="16" font-family="'Segoe UI', Tahoma, sans-serif">Processes</text>

      <rect x="164" y="0" width="120" height="36" rx="8" fill="#2a2f36" stroke="#414954"/>
      <text x="181" y="24" fill="#d0d6dd" font-size="16" font-family="'Segoe UI', Tahoma, sans-serif">Threats</text>

      <rect x="298" y="0" width="108" height="36" rx="8" fill="#2a2f36" stroke="#414954"/>
      <text x="320" y="24" fill="#d0d6dd" font-size="16" font-family="'Segoe UI', Tahoma, sans-serif">Alerts</text>
    </g>
  </g>

  <g transform="translate(915 64)" filter="url(#softShadow)">
    <rect x="0" y="0" width="420" height="292" rx="14" fill="url(#panel)" stroke="#353d46" stroke-width="1.5"/>
    <rect x="18" y="18" width="384" height="42" rx="8" fill="#20262d" stroke="#343b44"/>
    <circle cx="38" cy="39" r="6" fill="#54d28f"/>
    <circle cx="58" cy="39" r="6" fill="#f0bb4e"/>
    <circle cx="78" cy="39" r="6" fill="#ef6d6d"/>
    <text x="98" y="44" fill="#d8dde3" font-size="14" font-family="'Segoe UI', Tahoma, sans-serif">Live process telemetry</text>

    <g transform="translate(24 82)">
      <text x="0" y="12" fill="#8f9aa6" font-size="12" font-family="'Segoe UI', Tahoma, sans-serif">chatgpt.exe</text>
      <rect x="116" y="2" width="248" height="12" rx="6" fill="#28303a"/>
      <rect x="116" y="2" width="186" height="12" rx="6" fill="#63b3ff"/>
      <text x="370" y="12" fill="#b8c0c9" font-size="11" font-family="'Segoe UI', Tahoma, sans-serif">42%</text>
    </g>

    <g transform="translate(24 118)">
      <text x="0" y="12" fill="#8f9aa6" font-size="12" font-family="'Segoe UI', Tahoma, sans-serif">explorer.exe</text>
      <rect x="116" y="2" width="248" height="12" rx="6" fill="#28303a"/>
      <rect x="116" y="2" width="78" height="12" rx="6" fill="#74d89f"/>
      <text x="370" y="12" fill="#b8c0c9" font-size="11" font-family="'Segoe UI', Tahoma, sans-serif">18%</text>
    </g>

    <g transform="translate(24 154)">
      <text x="0" y="12" fill="#8f9aa6" font-size="12" font-family="'Segoe UI', Tahoma, sans-serif">nyx-monitor.exe</text>
      <rect x="116" y="2" width="248" height="12" rx="6" fill="#28303a"/>
      <rect x="116" y="2" width="56" height="12" rx="6" fill="#8fd4ff"/>
      <text x="370" y="12" fill="#b8c0c9" font-size="11" font-family="'Segoe UI', Tahoma, sans-serif">12%</text>
    </g>

    <line x1="20" y1="196" x2="400" y2="196" stroke="#313842"/>

    <g transform="translate(24 214)">
      <circle cx="5" cy="7" r="5" fill="#f0bb4e"/>
      <text x="18" y="11" fill="#d0d6dd" font-size="12" font-family="'Segoe UI', Tahoma, sans-serif">
        Confidence-aware scoring reduces false positives
      </text>
    </g>

    <g transform="translate(24 240)">
      <circle cx="5" cy="7" r="5" fill="#63b3ff"/>
      <text x="18" y="11" fill="#d0d6dd" font-size="12" font-family="'Segoe UI', Tahoma, sans-serif">
        Process tree, VT lookup and manual trust overrides
      </text>
    </g>
  </g>
</svg>
